<?xml version="1.0" encoding="utf-8"?>
<!-- Generator: Adobe Illustrator 23.1.1, SVG Export Plug-In . SVG Version: 6.00 Build 0)  -->
<svg version="1.1" id="Layer_1" xmlns="http://www.w3.org/2000/svg" xmlns:xlink="http://www.w3.org/1999/xlink" x="0px" y="0px"
	 viewBox="0 0 256 256" style="enable-background:new 0 0 256 256;" xml:space="preserve">
<style type="text/css">
	.st0{fill:#514854;}
	.st1{opacity:0.22;}
	.st2{fill:#F7F7F7;}
	.st3{fill:#FED485;}
	.st4{fill:#8A8A8A;}
	.st5{fill:#A0642F;}
	.st6{fill:#BE894A;}
	.st7{fill:#7DB878;}
	.st8{fill:#E5E5E5;}
	.st9{fill:#FB7961;}
	.st10{fill:#D8CEC6;}
	.st11{fill:#FDD9B8;}
	.st12{fill:#4BBCD7;}
</style>
<g>
	<path class="st0" d="M131.1,29.2H77.7c-6.3,0-11.3,5.4-11.3,12v125.4c0,6.6,5.1,12,11.3,12h53.4c6.3,0,11.3-5.4,11.3-12V41.2
		C142.5,34.6,137.4,29.2,131.1,29.2z M137.2,159.3H71.6V48.4h65.7L137.2,159.3L137.2,159.3z"/>
	<g class="st1">
		<path class="st2" d="M93.5,29.2l-1.4,19.2l-7.9,110.9l-1.4,19.2h-5.2c-6.3,0-11.3-5.4-11.3-12V41.2c0-6.7,5.1-12,11.3-12H93.5z"/>
	</g>
	<rect x="71.6" y="48.4" class="st3" width="65.7" height="110.9"/>
	<path class="st4" d="M117.8,38.9c0,0.8-0.6,1.4-1.4,1.4h-24c-0.8,0-1.4-0.6-1.4-1.4l0,0c0-0.8,0.6-1.4,1.4-1.4h24
		C117.2,37.5,117.8,38.1,117.8,38.9L117.8,38.9z"/>
	<rect x="119.8" y="68.6" class="st5" width="4.9" height="19.2"/>
	<rect x="107.2" y="107.8" class="st5" width="8" height="8"/>
	<rect x="117" y="115.4" class="st5" width="8" height="8"/>
	<rect x="76.2" y="124.9" class="st5" width="6.4" height="16.9"/>
	<polygon class="st5" points="82.6,72.5 82.6,95.6 71.6,95.6 71.6,89.2 76.2,89.2 76.2,72.5 	"/>
	<polygon class="st5" points="106.2,56.2 106.2,61.8 93,61.8 93,48.4 99,48.4 99,56.2 	"/>
	<rect x="76.2" y="48.4" class="st5" width="5.8" height="12.7"/>
	<polygon class="st6" points="137.2,139.6 137.2,142.7 135.8,144.8 132.1,142.2 127,138.7 99.1,119.3 99.1,69.9 71.6,69.9 
		71.6,64.9 104.2,64.9 104.2,116.6 127,132.5 132.1,136 	"/>
	<polygon class="st6" points="137.2,107.9 137.2,109.5 123.3,109.5 123.3,94.7 101.7,94.7 101.7,93 125,93 125,107.9 	"/>
	<polygon class="st6" points="104.9,159.3 99.5,159.3 93.5,144.2 92.3,141.1 84.9,122.4 84.9,48.4 89.9,48.4 89.9,121.4 	"/>
	<polygon class="st6" points="95.8,143.3 93.5,144.2 71.6,152.3 71.6,148.7 92.3,141.1 94.7,140.2 	"/>
	<polygon class="st6" points="71.6,103 84.9,103 87.4,103 87.4,104.7 84.9,104.7 71.6,104.7 	"/>
	<polygon class="st6" points="109.6,48.4 109.6,93 109.6,93.8 113,93.8 113,93 113,64.5 113,62.8 113,48.4 	"/>
	<rect x="111.3" y="62.8" class="st6" width="25.9" height="1.7"/>
	<rect x="127" y="48.4" class="st6" width="5" height="110.9"/>
	<path class="st7" d="M122.4,152.2c0,2.6-0.4,4.9-0.7,7.2h-10.4c-0.8-5.7-4.3-9.9-7.2-14.9c-1.5-2.5-7.1-12.6-2.5-14.1
		s10.9,7.8,14.1,9.9c2.3,1.5,4.4,1.7,5.7,4.4C122.4,146.9,122.4,149.8,122.4,152.2z"/>
	<g>
		<path class="st8" d="M139.8,26.9c0,6-3,9.7-6.5,15.1l-13.4,19l-13.5-19c-4.3-6.6-6.5-9.2-6.5-15.2c0-11,8.9-19.9,19.9-19.9
			C130.8,7,139.8,15.9,139.8,26.9z"/>
		<path class="st9" d="M134.4,27.1c0,8-6.5,14.6-14.6,14.6c-8,0-14.6-6.5-14.6-14.6c0-8,6.5-14.6,14.6-14.6S134.4,19,134.4,27.1z"/>
		<path class="st10" d="M130.2,27.1c0,5.7-4.6,10.4-10.3,10.4c-5.7,0-10.4-4.6-10.4-10.4c0-5.7,4.6-10.4,10.4-10.4
			C125.6,16.7,130.2,21.4,130.2,27.1z"/>
	</g>
	<path class="st11" d="M191.3,187.4l-67.6,38.2c-0.1-0.1-0.2-0.3-0.2-0.4c-1.8-2.9-3.5-5.7-5.9-9.1c-0.7-1.1-1.5-2.2-2.4-3.4
		c-8.4-5.6-11.2-7.5-19.4-14.7c-5.5-4.9-11.7-13-15.3-19.4h50.7c6.2,0,11.3-5.4,11.3-12v-49.3c1.7,1.2,2.8,2.5,4.2,3.9
		c-0.4-1.7-0.2-3.8-0.3-5.6c-0.1-1.8-0.5-3.4-0.7-5.2c-0.3-2.2,0.4-4.2-0.7-6.2c-0.8-1.6-1.9-3.3-2.5-5.1v0.3
		c-3.1-6.1-2.9-27.1-0.1-30.7c0,0,0-0.1,0.1-0.1c0.9-1.2,2-2.1,3.4-2.2c1.6-0.2,2.9,0,3.9,0.6c2.8,1.4,4.1,5.2,5.1,9.3
		c1.1,4.6,1.7,9.6,3.3,12.2c3.4,5,7.4,8.8,8.8,14.8c1,5,2.6,9.4,4.6,14.2c1.2,3.4,1.6,6.6,3.4,9.6c1.6,2.6,1.7,5.9,2.1,8.9
		c0.6,5.2,1.1,11.8,1.1,14.9c-0.2,3.6,0.7,7.3,1.4,10.9c0.1,0.8,0.3,1.5,0.5,2.3v0.1C182.2,172.6,186.6,180.4,191.3,187.4z"/>
	<path class="st11" d="M79.6,95.8c-1.3,5.1-6.4,8.2-11.5,7l-14.9-3.7c-5.1-1.3-8.2-6.4-7-11.5l0,0c1.3-5.1,6.4-8.2,11.5-7l14.9,3.7
		C77.8,85.6,80.9,90.7,79.6,95.8L79.6,95.8z"/>
	<path class="st11" d="M67.1,148.1c0,0-0.1,0-0.1,0.1l-0.2-0.4v0.5l0,0c-1.3,0.6-2.7,0.9-4,0.9c-2.7,0-5.2-1.3-6.4-3.6l-0.3-0.6
		l-4.7-9c-0.6-1.1-0.8-2.4-0.7-3.6c0-0.1,0-0.2,0-0.3s0-0.2,0.1-0.3v-0.1l0,0c0-0.2,0.1-0.3,0.1-0.5l0,0c0-0.1,0.1-0.2,0.1-0.3
		s0.1-0.2,0.1-0.3c0.2-0.5,0.5-1,0.8-1.5c0.8-1.3,2-2.4,3.5-3.2c1.3-0.7,2.7-1,4.1-1.1l0,0l0,0l0,0l0,0c0.2,0,0.4,0,0.6,0
		c0.1,0,0.2,0,0.3,0l0,0c2.5,0.2,4.7,1.4,5.8,3.6l0.6,1.1l4.4,8.5C73.1,141.3,71.2,145.9,67.1,148.1z"/>
	<path class="st11" d="M66.8,163.4L66.8,163.4c-0.1,0-0.1,0.1-0.2,0.1c-1.3,0.7-2.7,1-4,1c-2.3,0-4.4-1-5.4-3l-4.2-8.1
		c-0.7-1.3-0.7-2.8-0.3-4.2c0-0.1,0.1-0.2,0.1-0.3c0.1-0.2,0.1-0.3,0.2-0.5c0-0.1,0.1-0.2,0.2-0.3c0.1-0.1,0.1-0.2,0.2-0.4
		c0.6-1.1,1.5-2,2.7-2.8l0,0l0.3,0.6c1.2,2.3,3.7,3.6,6.5,3.6c1.3,0,2.7-0.3,4-0.9l0,0l0,0v-0.5l0.2,0.4l3.4,6.5
		C71.9,157.6,70.3,161.5,66.8,163.4z"/>
	<path class="st11" d="M70.3,114.5c1.5,3.4-0.2,7.5-3.9,9.1l-0.5,0.2c-3.7,1.7-7.9,0.2-9.4-3.2l-4.1-9.1c-1.5-3.4,0.2-7.5,3.9-9.1
		l0.5-0.2c3.7-1.7,7.9-0.2,9.4,3.2L70.3,114.5z"/>
	<polygon class="st12" points="210,201.4 127.5,249 116.5,229.6 123.7,225.6 191.3,187.4 198.7,183.3 	"/>
</g>
</svg>
