<?xml version="1.0" encoding="utf-8"?>
<!-- Generator: Adobe Illustrator 23.1.1, SVG Export Plug-In . SVG Version: 6.00 Build 0)  -->
<svg version="1.1" id="Layer_1" xmlns="http://www.w3.org/2000/svg" xmlns:xlink="http://www.w3.org/1999/xlink" x="0px" y="0px"
	 viewBox="0 0 256 181.1" style="enable-background:new 0 0 256 181.1;" xml:space="preserve">
<style type="text/css">
	.st0{fill:#E8EEF0;}
	.st1{fill:#FED485;}
	.st2{fill:#55AC45;}
	.st3{fill:#FFFFFF;}
	.st4{fill:#68C5DB;}
	.st5{fill:#F2F2F2;}
	.st6{fill:#CCCCCC;}
	.st7{fill:#FB7961;}
	.st8{fill:#E2D8D0;}
</style>
<polygon class="st0" points="249,172.8 7,172.8 34.1,95 221.9,95 "/>
<polygon class="st1" points="24.5,160.1 42.9,101 213.7,101 231.5,160.1 "/>
<polygon class="st2" points="117.8,133.8 116.2,160.1 24.5,160.1 30.7,140.2 "/>
<polygon class="st2" points="184.7,112.8 141.5,116.7 139.7,101 166,101 "/>
<polygon class="st2" points="231.5,160.1 166.5,160.1 227.9,148.2 227.9,148.2 "/>
<polygon class="st2" points="220.1,122.3 208.8,123.2 197,115.7 217.5,113.8 "/>
<g>
	<path class="st3" d="M226.7,144.4l-80.1,15.5l-3.3-27.9l64.5-4.7l6.8-0.5l6.7-0.5l-1.2-4l-11.2,0.8l-11.9-7.5l20.6-1.8l-1.2-3.9
		l-25,2.2l0,0l-17.7-11.2H166l18.7,11.7l-43.2,3.9l-1.8-15.6h-6.1l1.9,16.2l-10.7,1l1.1-17.1h-6l-1.1,17.7l-83.7,7.5l-1.3,4.2
		l84.8-7.6l-0.4,7L32,136.1l-1.3,4.1l87.1-6.4l-1.6,26.2h6l1.7-26.7l13.4-1l3.2,27.7h26l61.4-11.8L226.7,144.4z M124.2,129.3
		l0.4-7.1l11.4-1l0.8,7.2L124.2,129.3z M142,120.6l48.4-4.4l11.7,7.4l-59.2,4.3L142,120.6z"/>
</g>
<path class="st4" d="M107.7,107.2c-2.4,6.7-10.4,1.7-15.4,3.7c-6.7,2.7-13.7,8-21.7,3.3c-1.3-1-3-2-3.4-3.7c-0.3-2.7,2.4-3,2.4-4.7
	c0.2-2.6-0.8-3.8-2.3-4.9H107C108.1,103.2,108.5,105.4,107.7,107.2z"/>
<path class="st5" d="M193.5,47.2c0,11.3-5.6,18.4-12.4,28.7l-23.7,39.7l-1.7,2.9L130.1,76c-8.1-12.5-12.3-17.5-12.3-28.8
	c0-20.9,16.9-37.8,37.8-37.8c0.5,0,1,0,1.5,0h0.4C177.6,10.5,193.5,27,193.5,47.2z"/>
<path class="st6" d="M197,47.2c0,11.3-5.6,18.4-12.3,28.7l-25.5,42.6h-3.5l1.7-2.9l23.7-39.7c6.7-10.3,12.4-17.4,12.4-28.7
	c0-20.2-15.9-36.8-35.9-37.8c0.5,0,1,0,1.5,0C180,9.4,197,26.4,197,47.2z"/>
<path class="st7" d="M183.3,47.5c0,15.2-12.4,27.6-27.6,27.6c-15.2,0-27.6-12.4-27.6-27.6s12.4-27.6,27.6-27.6
	C170.9,19.9,183.3,32.2,183.3,47.5z"/>
<path class="st8" d="M175.1,47.5c0,10.7-8.7,19.5-19.5,19.5c-10.7,0-19.5-8.7-19.5-19.5S144.8,28,155.6,28
	C166.4,28,175.1,36.7,175.1,47.5z"/>
</svg>
