<?xml version="1.0" encoding="utf-8"?>
<!-- Generator: Adobe Illustrator 23.1.1, SVG Export Plug-In . SVG Version: 6.00 Build 0)  -->
<svg version="1.1" id="Layer_1" xmlns="http://www.w3.org/2000/svg" xmlns:xlink="http://www.w3.org/1999/xlink" x="0px" y="0px"
	 viewBox="0 0 256 197" style="enable-background:new 0 0 256 197;" xml:space="preserve">
<style type="text/css">
	.st0{fill:#514854;}
	.st1{fill:#FED485;}
	.st2{fill:#FFFFFF;}
	.st3{fill:#D5DCDE;}
	.st4{fill:#55BEC5;}
	.st5{fill:#7DB31A;}
	.st6{fill:#FB7961;}
	.st7{opacity:0.54;fill:#AAB1B3;}
	.st8{fill:#DAE3E5;}
	.st9{opacity:0.2;fill:#FFFFFF;}
	.st10{fill:#CCCCCC;}
	.st11{fill:#6A5F6E;}
</style>
<g>
	<path class="st0" d="M241.5,57.3v122.9c0,3.9-3.1,7-7,7h-215c-3.9,0-7-3.1-7-7V57.3c0-3.9,3.2-7,7-7h215
		C238.4,50.3,241.5,53.4,241.5,57.3z"/>
	<rect x="32.7" y="90.2" class="st1" width="187" height="79.1"/>
	<polygon class="st2" points="219.7,135.1 133,140.6 135.4,169.2 111.2,169.2 115.8,112.5 32.7,106.9 32.7,100.4 116.3,106.3 
		117.6,90.2 128.8,90.2 132.4,133.3 192.8,129.4 190.7,90.2 196.2,90.2 203.2,128.8 219.7,127.8 	"/>
	<path class="st3" d="M30.4,63.5v108.1H222V63.5H30.4z M219.7,169.2h-187V65.8h187V169.2z"/>
	<rect x="32.7" y="65.8" class="st4" width="187" height="24.4"/>
	<path class="st5" d="M173.4,116.6c-2.5,2.5-0.5,6.5-4.8,7.2c-3.7,0.5-6.7-1.2-9.8-2.6c-4.8-2.3-9.1,0.3-14.3-0.3
		c-3.5-0.4-8.8-3.5-8.4-7.7c0.4-4,7.8-3.8,10.6-5.1c4.6-2.2-0.1-7.2,3.4-10.3c4-3.5,10.6-3.7,15.3-2.1c2.3,0.6,3.1,2.3,5,3.7
		c1.8,1.4,6.1,1.7,8.3,0.7c3.1,1.2,5.8,3.3,7,6.4C188.6,113.4,177,112.8,173.4,116.6z"/>
	<polygon class="st6" points="105.8,163.7 123.5,132.5 142,163.5 123.9,158.9 	"/>
	<polygon class="st7" points="142,163.5 123.9,158.9 123.5,132.5 	"/>
	<path class="st5" d="M96.7,169.2H34.1c0.1-2.3,0.3-4.5,1.9-6.3c2.9-3.5,7.9-3.2,10.5-6.4c2.6-3.2,0.6-7,2.1-10.2
		c1.8-3.5,7-4.1,10.2-4.1c8.2-0.3,14.9,6.1,22.8,5.5c4.7-0.3,6.1-1.8,9.7,3.2c2.3,3.8,0.9,5.6,0.9,9.3c0.3,4.4,1.8,4.1,3.8,7.3
		C96.3,168.1,96.5,168.6,96.7,169.2z"/>
	<polygon class="st8" points="219.7,65.8 219.7,73.7 40.5,73.7 40.6,169.2 32.7,169.2 32.7,65.8 	"/>
	<path class="st9" d="M79.9,50.3L61.3,187.1H19.5c-3.9,0-7-3.1-7-7V57.3c0-3.9,3.2-7,7-7H79.9z"/>
	<path class="st6" d="M246.3,70.6v14.7c0,2.7-2.2,4.8-4.8,4.8V65.8c1.3,0,2.5,0.5,3.4,1.4C245.8,68.1,246.3,69.3,246.3,70.6z"/>
	<path class="st6" d="M246.3,101v14.7c0,2.7-2.2,4.8-4.8,4.8V96.2c1.3,0,2.5,0.5,3.4,1.4C245.8,98.5,246.3,99.7,246.3,101z"/>
	<path class="st6" d="M7.7,70.6v14.7c0,2.7,2.2,4.8,4.8,4.8V65.8c-1.3,0-2.5,0.5-3.4,1.4C8.2,68.1,7.7,69.3,7.7,70.6z"/>
	<path class="st6" d="M7.7,101v14.7c0,2.7,2.2,4.8,4.8,4.8V96.2c-1.3,0-2.5,0.5-3.4,1.4C8.2,98.5,7.7,99.7,7.7,101z"/>
	<path class="st10" d="M175.3,27.4c0,10.2-21.4,18.5-47.7,18.5c-26.4,0-47.7-8.3-47.7-18.5c0-10.2,21.4-18.5,47.7-18.5
		C153.9,8.8,175.3,17.1,175.3,27.4z"/>
	<rect x="101.1" y="27.4" class="st11" width="53" height="22.9"/>
	<path class="st11" d="M154.1,27.4c0,3.2-11.9,5.7-26.5,5.7c-14.6,0-26.5-2.6-26.5-5.7c0-3.2,11.9-5.7,26.5-5.7
		C142.2,21.6,154.1,24.2,154.1,27.4z"/>
</g>
</svg>
