<?xml version="1.0" encoding="utf-8"?>
<!-- Generator: Adobe Illustrator 23.1.1, SVG Export Plug-In . SVG Version: 6.00 Build 0)  -->
<svg version="1.1" id="Layer_1" xmlns="http://www.w3.org/2000/svg" xmlns:xlink="http://www.w3.org/1999/xlink" x="0px" y="0px"
	 viewBox="0 0 256 181.1" style="enable-background:new 0 0 256 181.1;" xml:space="preserve">
<style type="text/css">
	.st0{fill:#FECF7F;}
	.st1{opacity:0.66;fill:#C8B8AD;}
	.st2{fill:#FDC77B;}
	.st3{fill:#C5A064;}
	.st4{fill:#F1BD74;}
	.st5{fill:#55BEC5;}
	.st6{fill:#CCCCCC;}
	.st7{fill:#E5E5E5;}
	.st8{fill:#B3B3B3;}
	.st9{fill:#C0C7C9;}
	.st10{fill:#C2CACC;}
	.st11{fill:#AFB6B8;}
</style>
<g>
	<rect x="124.4" y="9.1" class="st0" width="8.8" height="151.6"/>
	<polygon class="st1" points="133.2,9.1 133.2,160.7 130.6,160.7 130.6,102 124.4,102 124.4,97.3 130.6,97.3 130.6,73 124.4,73 
		124.4,68.3 130.6,68.3 130.6,44.3 124.4,44.3 124.4,39.5 130.6,39.5 130.6,9.1 	"/>
	<polygon class="st2" points="165.1,28.7 151,39.5 100.1,39.5 100.1,17.8 151,17.8 	"/>
	<polygon class="st2" points="156.4,57.5 146,68.3 108.1,68.3 108.1,46.6 146,46.6 	"/>
	<polygon class="st3" points="161.9,57.5 151.4,68.3 146,68.3 156.4,57.5 146,46.6 151.4,46.6 	"/>
	<polygon class="st2" points="99.5,86.4 108.8,97.3 142.7,97.3 142.7,75.6 108.8,75.6 	"/>
	<rect x="142.7" y="75.6" class="st3" width="4.6" height="21.6"/>
	<g>
		<g>
			<path class="st4" d="M113.8,17.8c-1,1.4-2.2,2.6-3.7,3.4c-3.2,1.5-6.6,2-10,2.8v-1.1c3.1-0.5,6.6-0.9,8.8-2.6
				c0.9-0.7,1.6-1.5,2.3-2.4H113.8z"/>
		</g>
		<g>
			<path class="st4" d="M120.5,17.8c-2,3.9-5.5,6.5-9.8,7.9c-2.3,0.7-7.3,1.2-10.6,2.7v-1.9c6.5-2,14.3-2.1,17.6-8.6H120.5z"/>
		</g>
		<g>
			<path class="st4" d="M125.7,17.8c-1.4,5.1-6.2,8.1-11,10.3c-2.4,1.1-5,1.9-7.6,2.4c-5.4,1.2-4.8,5.3-2.4,8.9h-3.6
				c-1.4-2.9-1.4-6.1,1.6-8.4c2.4-1.9,6.5-1.9,9.3-3c5-2,9.9-5,11-10.2H125.7z"/>
		</g>
		<g>
			<path class="st4" d="M126.7,39.5h-2.9c1.3-4.4-4.3-6.2-8.5-5.9c-2,0.2-6,0.9-3.1,3.3c1.3,1.1,2.8,1.9,4.3,2.6h-5.6
				c-1.4-0.9-2.5-2-2.8-3.3c-0.6-3.2,4-4.3,6.4-4.6C120,31,128.6,33.3,126.7,39.5z"/>
		</g>
		<g>
			<path class="st4" d="M134.1,39.5h-3c-0.6-2.6-2.5-4.2-5.1-6c-1.7-1.1-2.7-1.6-3-3.6c-0.3-1.6,2.2-4.8,2.7-5.8
				c1-2.1,1.8-4.1,2.6-6.3h2.5c-2.1,4.7-5.7,12.1-2.9,14C131.2,34.1,133.7,36,134.1,39.5z"/>
		</g>
		<g>
			<path class="st4" d="M144.9,39.5h-3.4c-2.8-3.9-8.2-5.7-11.2-9.8c-1.7-2.3,1.5-8.5,3.9-11.8h2.6c-1.5,2.3-2.4,4.9-3.2,7.6
				c-1.1,3.7,0.9,4.6,3.4,6.6C139.9,34.3,143.2,36.4,144.9,39.5z"/>
		</g>
		<g>
			<path class="st4" d="M163.9,29.6l-2.3,1.8c-3.8-0.8-7.8-0.7-12.2-0.8c-1.3,0-7.9-0.2-6.8-3.1c0.9-2.2,5-2.8,7-3.2
				c1.5-0.3,5.3-0.5,8.1-1.2l1.8,1.3c-4.1,1.4-9.8,1.2-13.1,2.6c-2.4,1,5.2,1.7,6,1.7c1.7-0.1,3.4-0.2,5-0.1
				C159.7,28.7,161.9,29,163.9,29.6z"/>
		</g>
		<g>
			<path class="st4" d="M154.2,37l-2,1.5c-2.9-1.5-6-2.5-9.1-4c-2.2-1.1-5.3-2.7-6.3-5.2c-2.3-5.8,3.5-8.7,8.1-11.5h2.9
				c-5.2,3.5-12.4,7.7-6.6,12.5C145,33.6,149.9,34.9,154.2,37z"/>
		</g>
	</g>
	<g>
		<g>
			<path class="st4" d="M120.7,58.9c-3.3,3.2-8.4,2.3-12.6,3.5v-2.1c0.5-0.1,1-0.3,1.5-0.3c2-0.4,5.5-0.2,7.7-1.2
				c-2.9-1.2-6.1-1.3-9.1-1.8v-2.2c4.2,1.1,8.6,0.9,12.5,3C121.1,57.9,121,58.6,120.7,58.9z"/>
		</g>
		<g>
			<path class="st4" d="M128.4,58.3c-2.8,1.5-5.3,2.9-7.9,4.8c-1.5,1.2-3.1,2.1-5,2.5c-2.4,0.6-5,0.6-7.5,0.8V65
				c1.4-0.1,2.7-0.1,4.1-0.4c4.4-0.8,6.5-3.4,10-5.5c1-0.6,2-1,3.1-1.4c-2.9-1.2-6.5-1.3-9.4-2c-2.6-0.6-5.2-1.4-7.8-1.8v-2
				c3.2,0.3,6.3,1.3,9.5,2c3.6,0.8,8.1,0.9,11.3,2.9C129.7,57.3,128.9,58,128.4,58.3z"/>
		</g>
		<g>
			<path class="st4" d="M138,55.2c-3.3,5.1-9.5,6.5-13.2,11.2c-0.5,0.7-1.1,1.3-1.7,1.8h-3c2.1-1.8,3.6-4.2,6.2-6
				c2.6-1.8,12.5-6,4.8-7.3c-7.7-1.3-15.3-3.9-23-4.9v-1.6c5.9,0.6,11.5,2.6,17.3,3.7c4.1,0.8,8.6,0.9,12.5,2.4
				C138.2,54.7,138.2,54.9,138,55.2z"/>
		</g>
		<g>
			<path class="st4" d="M146.3,47c-2.4,1.4-4.8,2.7-6.8,4.8c-0.5,0.6-1.7,0.9-2.5,0.7c-7-2.1-15.6-1.7-21.8-5.9h4.6
				c5.4,2.6,12.3,2.7,18.2,4.2c1.9-1.8,4.1-2.9,6.3-4.2h1.7L146.3,47z"/>
		</g>
		<g>
			<path class="st4" d="M137.2,46.6c-0.6,1-1.3,2.1-2.6,2.3c-2.6,0.5-4.2-1-6.5-1.9c-0.3-0.1-0.4-0.3-0.5-0.4h5.1
				c0.7,0.3,1.2,0.4,1.5,0.1c0,0,0.1-0.1,0.1-0.1H137.2z"/>
		</g>
		<g>
			<path class="st4" d="M152.1,62l-1.8,1.9c-1.5-1.6-3.2-3-5-4.3c-1.3-0.9-4.8-2.4-4.7-4.4c0.3-3.1,4.3-5.4,7.1-6.7l0.7,0.7
				c-1.7,0.9-3.4,2.1-4.3,3.5c-1.5,2.5,0.7,3.9,2.6,5.1C148.7,59,150.5,60.4,152.1,62z"/>
		</g>
		<g>
			<path class="st4" d="M155.9,58.1l-1.8,1.8c-0.9-0.9-2-1.6-3.1-2.3c-1-0.6-2.2-1.3-3.3-1.6c-0.6-0.2-1.4-0.3-1.9-0.6
				c-1.6-1,2.3-2.9,4.8-3.9l0.9,0.9c-0.9,0.3-1.7,0.7-2.5,1.2c-1.3,0.8,0.7,1,1.1,1.2c0.6,0.2,1.2,0.5,1.8,0.8
				C153.3,56.2,154.6,57.1,155.9,58.1z"/>
		</g>
		<g>
			<path class="st4" d="M148.2,65.9l-2,2c-1.9-2.5-4.6-4.4-6.9-6.8c-2-2-6.6,4.4-8.3,7.1h-2.7c2.2-3.8,6.2-8.5,10.4-9.2
				c2.9-0.5,4,2,6.1,3.7C146,63.8,147.2,64.8,148.2,65.9z"/>
		</g>
		<g>
			<path class="st4" d="M143.1,68.3h-3.5c-0.3-0.3-0.5-0.7-0.7-1.1c-0.3-0.6-0.6-1.2-1-1.8c0-0.1-0.1-0.2-0.2-0.3
				c-0.7,1-1.2,2.1-1.8,3.2h-2.6c1-1.9,1.9-4.2,4-4.9c1.3-0.4,2.4-0.3,3.2,0.9c0.5,0.8,0.9,1.7,1.4,2.5
				C142.3,67.3,142.7,67.8,143.1,68.3z"/>
		</g>
	</g>
	<g>
		<g>
			<path class="st4" d="M136.3,87.2c2.2-0.1,4.3-0.7,6.3-1.3v1c-2.8,0.8-5.6,1.8-8.5,1.7c-0.3,0-1-0.1-0.9-0.5
				c1-4.6,5.1-7.4,9.4-9.3v1.6C139.7,82,137.2,84,136.3,87.2z"/>
		</g>
		<g>
			<path class="st4" d="M129.5,91.2c2.5-0.1,5-1,7.5-1.1c1.9-0.1,3.8-0.2,5.7-0.3v1.5c-2.9,0-6,0-8.8,0.5c-2.2,0.4-4.3,1.1-6.6,0.9
				c-0.3,0-1-0.2-0.9-0.6c2.3-7.6,7.3-13.6,14.6-16.5h1.7v1C136,79,131.7,84.6,129.5,91.2z"/>
		</g>
		<g>
			<path class="st4" d="M141.8,97.3h-5.3c-1.9-0.7-3.9-1-6.1-0.9c-3.2,0.3-6.2,0.6-9.3,0c-0.4-0.1-1.1-0.3-1-0.9
				c1.8-8.2,6.9-15.6,14.1-19.9h4.5c-5,2.2-9.4,5.9-12.1,10.7c-1.3,2.3-2.7,4.7-3.2,7.4c-0.5,2.2,4.3,0.9,5.4,0.8
				C133.6,94.1,138.2,94.7,141.8,97.3z"/>
		</g>
		<g>
			<path class="st4" d="M128.2,75.6c-0.1,0.1-0.2,0.1-0.3,0.1c-6.1,2.2-8.3,10.6-11,15.8c-1.1,2.2-1.9,3.7-3.9,5.1
				c-0.3,0.2-0.6,0.4-1,0.6h-3.2l-0.5-0.6c3.4-2,5.5-4.5,7.3-8.4c2-4.4,4.3-9.7,8.4-12.6H128.2z"/>
		</g>
		<g>
			<path class="st4" d="M119.7,75.6c-2.6,3.7-3.3,8.3-5.9,11.9c-2.3,3.2-5.5,3.9-8.6,5.4l-1-1.1c0.8-0.3,1.6-0.7,2.5-1
				c3.5-1.4,5.1-3.9,6.4-7.1c1.2-2.8,2.2-5.6,4-8.1H119.7z"/>
		</g>
		<g>
			<path class="st4" d="M113.9,75.6c-0.8,3.5-1.6,7.9-4.6,10.1c-1.7,1.2-4.2,1.3-6.2,1.8c-0.8,0.2-1.6,0.3-2.3,0.5l-1.3-1.5l0.2-0.3
				c1.8-0.4,3.6-0.8,5.4-1.1c4.4-0.8,5.1-5.6,6-9.5H113.9z"/>
		</g>
	</g>
	<ellipse class="st5" cx="128" cy="165" rx="40.8" ry="7"/>
	<polygon class="st6" points="106.9,166 97.1,157.8 102,150.2 106.9,146 120.2,148 129.5,157.8 129.5,163.1 125.8,166 	"/>
	<polygon class="st7" points="133.9,163.1 135.6,156.7 144.1,149.9 150,149.9 156.2,155 157.9,160.1 157.9,163.1 	"/>
	<polygon class="st8" points="124.9,166 122.9,163.5 123.9,160.1 125.7,157.3 133.5,155 138.9,158.9 141.8,163.5 140.6,166 	"/>
	<polygon class="st9" points="124.9,166 106.9,166 97.1,157.8 102,150.2 106.9,146 107.3,146.1 103.1,153.4 103.6,158.7 
		112.6,163.1 119.9,163.1 122.9,159 124.8,158.7 124.5,159.2 124.5,159.2 124.5,159.2 123.9,160.2 122.9,163.5 	"/>
	<polygon class="st10" points="157.9,160.1 157.9,163.1 141.6,163.1 139.3,159.5 141.1,159.3 145.2,161.6 154.5,161.3 155.7,157.3 
		155.5,156.9 154.4,155 156.5,156 156.7,156.7 	"/>
	<polygon class="st11" points="141.8,163.5 140.6,166 124.9,166 122.9,163.5 123.9,160.2 124.5,159.2 124.2,162.9 126.4,165 
		127.2,164.9 138,163.6 138.3,163.1 138.9,161.6 137.3,157.7 138.9,158.9 139.3,159.5 138.9,159.6 139.3,159.5 141.6,163.1 	"/>
</g>
</svg>
