<?xml version="1.0" encoding="utf-8"?>
<!-- Generator: Adobe Illustrator 23.1.1, SVG Export Plug-In . SVG Version: 6.00 Build 0)  -->
<svg version="1.1" id="Layer_1" xmlns="http://www.w3.org/2000/svg" xmlns:xlink="http://www.w3.org/1999/xlink" x="0px" y="0px"
	 viewBox="0 0 256 200.5" style="enable-background:new 0 0 256 200.5;" xml:space="preserve">
<style type="text/css">
	.st0{fill:#7D7F84;}
	.st1{fill:#FFFFFF;}
	.st2{fill:#514854;}
	.st3{fill:#55BEC5;}
	.st4{fill:#FB7C6B;}
	.st5{fill:#EDE6E0;}
</style>
<g>
	<polygon class="st0" points="249,147 52.3,147 91.5,6.7 209.8,6.7 	"/>
	<polygon class="st1" points="238.6,147 228.3,147 197.3,6.7 203.3,6.7 	"/>
	<polygon class="st1" points="104,6.7 73,147 62.6,147 97.9,6.7 	"/>
	<polygon class="st1" points="154.7,27.7 146.5,27.7 146.8,6.7 154.5,6.7 	"/>
	<polygon class="st1" points="155.3,72.3 146,72.3 146.5,32.2 154.8,32.2 	"/>
	<polygon class="st1" points="156,129.1 145.3,129.1 145.9,76.9 155.4,76.9 	"/>
	<polygon class="st1" points="156.3,147 145.1,147 145.2,133.7 156.1,133.7 	"/>
	<path class="st1" d="M121.6,133.7c0,29.8-24.2,54-54,54s-54-24.2-54-54s24.2-54,54-54S121.6,103.8,121.6,133.7z"/>
	<path class="st2" d="M41.2,152.7c-1.4,0.8-3.3,0.3-4.1-1.1l0,0c-0.8-1.4-0.3-3.3,1.1-4.1l29.5-16.6c1.4-0.8,3.3-0.3,4.1,1.1l0,0
		c0.8,1.4,0.3,3.3-1.1,4.1L41.2,152.7z"/>
	<path class="st2" d="M70.8,131.1c1.4,0.8,1.9,2.7,1.1,4.1l0,0c-0.8,1.4-2.7,1.9-4.1,1.1l-16.9-9.7c-1.4-0.8-1.9-2.7-1.1-4.1l0,0
		c0.8-1.4,2.7-1.9,4.1-1.1L70.8,131.1z"/>
	<g>
		<path class="st3" d="M94.3,158.9l-1.5,1.4l-22.9-24.4c-0.2,0.1-0.5,0.1-0.7,0.1c-1.3,0-2.4-1.1-2.4-2.4c0-1.3,1.1-2.4,2.4-2.4
			s2.4,1.1,2.4,2.4c0,0.3,0,0.6-0.2,0.8L94.3,158.9z"/>
	</g>
	<path class="st4" d="M128.2,133.7c0,33.5-27.1,60.6-60.6,60.6C34.1,194.3,7,167.1,7,133.7s27.1-60.6,60.6-60.6
		c15.9,0,30.4,6.2,41.2,16.2l4.1-4.1l1.5,21.9l-21.8-1.6l4.4-4.3c-7.8-7-18-11.3-29.3-11.3c-24.2,0-43.8,19.6-43.8,43.8
		s19.6,43.8,43.8,43.8s43.8-19.6,43.8-43.8H128.2z"/>
	<path class="st5" d="M128.2,133.7c0,33.4-27.1,60.6-60.6,60.6C34.1,194.3,7,167.1,7,133.7s27.1-60.6,60.6-60.6
		c15.9,0,30.4,6.2,41.2,16.2l4.1-4.1l1.5,21.7c-9.3-16.3-26.8-27.2-46.9-27.2c-29.8,0-54,24.2-54,54s24.2,54,54,54s54-24.2,54-54
		L128.2,133.7L128.2,133.7z"/>
</g>
</svg>
